<svg width="70" height="64" viewBox="0 0 70 64" fill="none" xmlns="http://www.w3.org/2000/svg">
<path d="M68.8333 30.1333C64.6333 29.9778 60.5889 30.5222 56.7 31.7667C56.5444 27.7222 55.6889 23.7556 54.1333 19.8667C53.9778 19.5556 53.7444 19.3222 53.4333 19.1667C53.1222 19.0111 52.8111 19.0111 52.5 19.1667C50.1667 20.1 47.9111 21.3445 45.7333 22.9C43.2444 17.7667 39.9778 13.1778 35.9333 9.13334C35.6222 8.97779 35.3111 8.90001 35 8.90001C34.6889 8.90001 34.3778 8.97779 34.0667 9.13334C30.0222 13.1778 26.7556 17.7667 24.2667 22.9C22.0889 21.3445 19.8333 20.1 17.5 19.1667C17.1889 19.0111 16.8778 19.0111 16.5667 19.1667C16.2556 19.3222 16.0222 19.5556 15.8667 19.8667C14.3111 23.7556 13.4556 27.7222 13.3 31.7667C9.41111 30.5222 5.36667 29.9778 1.16667 30.1333C0.855556 30.1333 0.583333 30.25 0.35 30.4833C0.116667 30.7167 0 30.9889 0 31.3C0.155556 37.2111 1.78889 42.6945 4.9 47.75C8.01111 52.8056 12.1333 56.7722 17.2667 59.65C22.4 62.5278 27.9222 63.9667 33.8333 63.9667H36.1667C42.0778 63.9667 47.6 62.5278 52.7333 59.65C57.8667 56.7722 61.9889 52.8056 65.1 47.75C68.2111 42.6945 69.8444 37.2111 70 31.3C70 30.9889 69.8833 30.7167 69.65 30.4833C69.4167 30.25 69.1444 30.1333 68.8333 30.1333ZM17.7333 21.9667C21.1556 23.5222 24.2667 25.7 27.0667 28.5C29.8667 31.3 32.0444 34.5667 33.6 38.3C32.5111 41.1 31.8111 43.9 31.5 46.7C29.7889 43.5889 27.5722 40.8667 24.85 38.5333C22.1278 36.2 19.1333 34.2556 15.8667 32.7C15.8667 28.9667 16.4889 25.3889 17.7333 21.9667ZM2.56667 32.4667C6.45556 32.4667 10.2278 33.2056 13.8833 34.6833C17.5389 36.1611 20.8444 38.2611 23.8 40.9833C26.7556 43.7056 29.0889 46.8167 30.8 50.3167C32.5111 53.8167 33.4444 57.5889 33.6 61.6333C28.3111 61.4778 23.3722 60.1167 18.7833 57.55C14.1944 54.9833 10.4222 51.4833 7.46667 47.05C4.51111 42.6167 2.87778 37.7556 2.56667 32.4667ZM28.7 26.6333C27.9222 25.8556 27.1444 25.0778 26.3667 24.3C28.5444 19.7889 31.4222 15.6667 35 11.9333C38.5778 15.6667 41.4556 19.7889 43.6333 24.3C42.8556 25.0778 42.0778 25.8556 41.3 26.6333C38.6556 29.1222 36.5556 32 35 35.2667C33.4444 32 31.3444 29.1222 28.7 26.6333ZM35 54.6333C34.6889 53.5445 34.3 52.4556 33.8333 51.3667V50.4333C33.8333 46.3889 34.6111 42.4222 36.1667 38.5333C37.7222 34.6445 40.0556 31.2222 43.1667 28.2667C45.8111 25.6222 48.8444 23.5222 52.2667 21.9667C53.5111 25.3889 54.1333 28.9667 54.1333 32.7C50.5556 34.2556 47.3667 36.3556 44.5667 39C39.9 43.3556 36.7111 48.5667 35 54.6333ZM36.4 61.6333C36.5556 57.5889 37.4889 53.8167 39.2 50.3167C40.9111 46.8167 43.2444 43.7056 46.2 40.9833C49.1556 38.2611 52.4611 36.1611 56.1167 34.6833C59.7722 33.2056 63.5444 32.4667 67.4333 32.4667C67.1222 37.7556 65.4889 42.6167 62.5333 47.05C59.5778 51.4833 55.8056 54.9833 51.2167 57.55C46.6278 60.1167 41.6889 61.4778 36.4 61.6333ZM0.7 25.2333C0.7 25.5445 0.816667 25.8167 1.05 26.05C1.28333 26.2833 1.55556 26.4 1.86667 26.4C2.17778 26.4 2.48889 26.2833 2.8 26.05C3.11111 25.8167 3.26667 25.5445 3.26667 25.2333C3.26667 24.9222 3.11111 24.6111 2.8 24.3C2.48889 23.9889 2.17778 23.8333 1.86667 23.8333C1.55556 23.8333 1.28333 23.9889 1.05 24.3C0.816667 24.6111 0.7 24.9222 0.7 25.2333ZM15.6333 11.4667C15.6333 11.7778 15.75 12.05 15.9833 12.2833C16.2167 12.5167 16.5278 12.6333 16.9167 12.6333C17.3056 12.6333 17.6167 12.5167 17.85 12.2833C18.0833 12.05 18.2 11.7778 18.2 11.4667C18.2 11.1556 18.0833 10.8833 17.85 10.65C17.6167 10.4167 17.3056 10.3 16.9167 10.3C16.5278 10.3 16.2167 10.4167 15.9833 10.65C15.75 10.8833 15.6333 11.1556 15.6333 11.4667ZM33.8333 1.20001C33.8333 1.51112 33.95 1.78334 34.1833 2.01667C34.4167 2.25001 34.6889 2.36668 35 2.36668C35.3111 2.36668 35.5833 2.25001 35.8167 2.01667C36.05 1.78334 36.1667 1.51112 36.1667 1.20001C36.1667 0.888897 36.05 0.616676 35.8167 0.383343C35.5833 0.150009 35.3111 0.0333405 35 0.0333405C34.6889 0.0333405 34.4167 0.150009 34.1833 0.383343C33.95 0.616676 33.8333 0.888897 33.8333 1.20001ZM51.8 11.4667C51.8 11.7778 51.9167 12.05 52.15 12.2833C52.3833 12.5167 52.6944 12.6333 53.0833 12.6333C53.4722 12.6333 53.7833 12.5167 54.0167 12.2833C54.25 12.05 54.3667 11.7778 54.3667 11.4667C54.3667 11.1556 54.25 10.8833 54.0167 10.65C53.7833 10.4167 53.4722 10.3 53.0833 10.3C52.6944 10.3 52.3833 10.4167 52.15 10.65C51.9167 10.8833 51.8 11.1556 51.8 11.4667ZM66.7333 25.2333C66.7333 25.5445 66.8889 25.8167 67.2 26.05C67.5111 26.2833 67.8222 26.4 68.1333 26.4C68.4444 26.4 68.7167 26.2833 68.95 26.05C69.1833 25.8167 69.3 25.5445 69.3 25.2333C69.3 24.9222 69.1833 24.6111 68.95 24.3C68.7167 23.9889 68.4444 23.8333 68.1333 23.8333C67.8222 23.8333 67.5111 23.9889 67.2 24.3C66.8889 24.6111 66.7333 24.9222 66.7333 25.2333Z" fill="#031D95"/>
</svg>
